G04 #@! TF.FileFunction,Soldermask,Top*
%FSLAX46Y46*%
G04 Gerber Fmt 4.6, Leading zero omitted, Abs format (unit mm)*
G04 Created by KiCad (PCBNEW 4.0.7-e2-6376~58~ubuntu16.04.1) date Thu Nov 23 09:20:08 2017*
%MOMM*%
%LPD*%
G01*
G04 APERTURE LIST*
%ADD10C,0.100000*%
%ADD11C,1.600000*%
%ADD12O,1.600000X1.600000*%
%ADD13R,0.500000X0.600000*%
%ADD14R,1.850000X1.850000*%
%ADD15C,1.850000*%
%ADD16R,1.600000X2.600000*%
%ADD17R,2.600000X1.600000*%
%ADD18R,1.700000X0.900000*%
%ADD19R,0.900000X1.700000*%
%ADD20R,1.300000X0.700000*%
%ADD21R,1.651000X0.431800*%
%ADD22C,1.500000*%
%ADD23R,2.000000X3.500000*%
%ADD24R,7.000000X7.000000*%
%ADD25R,1.800000X1.800000*%
%ADD26O,1.800000X1.800000*%
%ADD27R,2.400000X2.400000*%
%ADD28C,2.400000*%
%ADD29R,1.770000X1.800000*%
%ADD30R,1.800000X1.770000*%
G04 APERTURE END LIST*
D10*
D11*
X114300000Y-49530000D03*
X114300000Y-52030000D03*
X114300000Y-57150000D03*
X114300000Y-59650000D03*
X194818000Y-72199500D03*
X197318000Y-72199500D03*
X129540000Y-49530000D03*
X129540000Y-52030000D03*
X129540000Y-57150000D03*
X129540000Y-59650000D03*
X173990000Y-66040000D03*
X171490000Y-66040000D03*
X129603500Y-70485000D03*
X129603500Y-72985000D03*
X130810000Y-95250000D03*
D12*
X130810000Y-85250000D03*
D11*
X140970000Y-95250000D03*
D12*
X140970000Y-85250000D03*
D11*
X99060000Y-43180000D03*
X99060000Y-40680000D03*
X109220000Y-43180000D03*
X109220000Y-40680000D03*
X146050000Y-77089000D03*
X146050000Y-74589000D03*
X129603500Y-64135000D03*
X129603500Y-66635000D03*
D13*
X151320500Y-65934500D03*
X151320500Y-67034500D03*
X151384000Y-63415000D03*
X151384000Y-62315000D03*
D14*
X140970000Y-45720000D03*
D15*
X143470000Y-45720000D03*
X145970000Y-45720000D03*
X148470000Y-45720000D03*
X150970000Y-45720000D03*
X153470000Y-45720000D03*
X155970000Y-45720000D03*
X158470000Y-45720000D03*
X160970000Y-45720000D03*
D16*
X129540000Y-40110000D03*
X129540000Y-43710000D03*
D17*
X197761000Y-62166500D03*
X194161000Y-62166500D03*
X197888000Y-79883000D03*
X194288000Y-79883000D03*
X177060000Y-58420000D03*
X173460000Y-58420000D03*
D16*
X118110000Y-40110000D03*
X118110000Y-43710000D03*
X136144000Y-74273000D03*
X136144000Y-77873000D03*
D14*
X97790000Y-55880000D03*
D15*
X97790000Y-58380000D03*
X97790000Y-60880000D03*
D14*
X173990000Y-45720000D03*
D15*
X176490000Y-45720000D03*
D18*
X97790000Y-78920000D03*
X97790000Y-76020000D03*
X97790000Y-85270000D03*
X97790000Y-82370000D03*
D19*
X108130000Y-52070000D03*
X105230000Y-52070000D03*
X108130000Y-59690000D03*
X105230000Y-59690000D03*
X105590000Y-85090000D03*
X102690000Y-85090000D03*
X111940000Y-85090000D03*
X109040000Y-85090000D03*
X123370000Y-52070000D03*
X120470000Y-52070000D03*
X123497000Y-59690000D03*
X120597000Y-59690000D03*
X118290000Y-85090000D03*
X115390000Y-85090000D03*
D18*
X118110000Y-77290000D03*
X118110000Y-80190000D03*
D19*
X110310000Y-77470000D03*
X113210000Y-77470000D03*
X102690000Y-77470000D03*
X105590000Y-77470000D03*
D20*
X102870000Y-71440000D03*
X102870000Y-73340000D03*
D19*
X109400000Y-71056500D03*
X106500000Y-71056500D03*
X115750000Y-71120000D03*
X112850000Y-71120000D03*
D18*
X120650000Y-70749500D03*
X120650000Y-73649500D03*
X157480000Y-89990000D03*
X157480000Y-92890000D03*
X151130000Y-92890000D03*
X151130000Y-89990000D03*
X120650000Y-64209000D03*
X120650000Y-67109000D03*
D21*
X136067800Y-60579000D03*
X136067800Y-61214000D03*
X136067800Y-61874400D03*
X136067800Y-62534800D03*
X136067800Y-63169800D03*
X136067800Y-63830200D03*
X136067800Y-64465200D03*
X136067800Y-65125600D03*
X136067800Y-65786000D03*
X136067800Y-66421000D03*
X143332200Y-66421000D03*
X143332200Y-65786000D03*
X143332200Y-65125600D03*
X143332200Y-64465200D03*
X143332200Y-63830200D03*
X143332200Y-63169800D03*
X143332200Y-62534800D03*
X143332200Y-61874400D03*
X143332200Y-61214000D03*
X143332200Y-60579000D03*
D22*
X157226000Y-64135000D03*
X157226000Y-59255000D03*
D23*
X196673500Y-86801500D03*
X192093500Y-86801500D03*
D24*
X194373500Y-94201500D03*
D25*
X170243500Y-72199500D03*
D26*
X175323500Y-72199500D03*
D27*
X171704000Y-85471000D03*
D28*
X179204000Y-85471000D03*
D29*
X157480000Y-74158000D03*
X157480000Y-78242000D03*
D30*
X157978000Y-85090000D03*
X162062000Y-85090000D03*
M02*
