G04 #@! TF.FileFunction,Soldermask,Bot*
%FSLAX46Y46*%
G04 Gerber Fmt 4.6, Leading zero omitted, Abs format (unit mm)*
G04 Created by KiCad (PCBNEW 4.0.7-e2-6376~58~ubuntu16.04.1) date Thu Nov 23 09:20:08 2017*
%MOMM*%
%LPD*%
G01*
G04 APERTURE LIST*
%ADD10C,0.100000*%
%ADD11C,1.600000*%
%ADD12O,1.600000X1.600000*%
%ADD13R,1.850000X1.850000*%
%ADD14C,1.850000*%
%ADD15C,1.500000*%
%ADD16R,1.800000X1.800000*%
%ADD17O,1.800000X1.800000*%
%ADD18R,2.400000X2.400000*%
%ADD19C,2.400000*%
G04 APERTURE END LIST*
D10*
D11*
X114300000Y-49530000D03*
X114300000Y-52030000D03*
X114300000Y-57150000D03*
X114300000Y-59650000D03*
X194818000Y-72199500D03*
X197318000Y-72199500D03*
X129540000Y-49530000D03*
X129540000Y-52030000D03*
X129540000Y-57150000D03*
X129540000Y-59650000D03*
X173990000Y-66040000D03*
X171490000Y-66040000D03*
X129603500Y-70485000D03*
X129603500Y-72985000D03*
X130810000Y-95250000D03*
D12*
X130810000Y-85250000D03*
D11*
X140970000Y-95250000D03*
D12*
X140970000Y-85250000D03*
D11*
X99060000Y-43180000D03*
X99060000Y-40680000D03*
X109220000Y-43180000D03*
X109220000Y-40680000D03*
X146050000Y-77089000D03*
X146050000Y-74589000D03*
X129603500Y-64135000D03*
X129603500Y-66635000D03*
D13*
X140970000Y-45720000D03*
D14*
X143470000Y-45720000D03*
X145970000Y-45720000D03*
X148470000Y-45720000D03*
X150970000Y-45720000D03*
X153470000Y-45720000D03*
X155970000Y-45720000D03*
X158470000Y-45720000D03*
X160970000Y-45720000D03*
D13*
X97790000Y-55880000D03*
D14*
X97790000Y-58380000D03*
X97790000Y-60880000D03*
D13*
X173990000Y-45720000D03*
D14*
X176490000Y-45720000D03*
D15*
X157226000Y-64135000D03*
X157226000Y-59255000D03*
D16*
X170243500Y-72199500D03*
D17*
X175323500Y-72199500D03*
D18*
X171704000Y-85471000D03*
D19*
X179204000Y-85471000D03*
M02*
