M48
METRIC,TZ
T1C0.800
T2C0.900
T3C1.200
%
G90
G05
T1
X99060Y-40680
X99060Y-43180
X109220Y-40680
X109220Y-43180
X114300Y-49530
X114300Y-52030
X114300Y-57150
X114300Y-59650
X129540Y-49530
X129540Y-52030
X129540Y-57150
X129540Y-59650
X129603Y-64135
X129603Y-66635
X129603Y-70485
X129603Y-72985
X130810Y-85250
X130810Y-95250
X140970Y-85250
X140970Y-95250
X146050Y-74589
X146050Y-77089
X157226Y-59255
X157226Y-64135
X171490Y-66040
X173990Y-66040
X194818Y-72200
X197318Y-72200
T2
X97790Y-55880
X97790Y-58380
X97790Y-60880
X140970Y-45720
X143470Y-45720
X145970Y-45720
X148470Y-45720
X150970Y-45720
X153470Y-45720
X155970Y-45720
X158470Y-45720
X160970Y-45720
X170244Y-72200
X173990Y-45720
X175324Y-72200
X176490Y-45720
T3
X171704Y-85471
X179204Y-85471
T0
M30
