G04 #@! TF.FileFunction,Legend,Top*
%FSLAX46Y46*%
G04 Gerber Fmt 4.6, Leading zero omitted, Abs format (unit mm)*
G04 Created by KiCad (PCBNEW 4.0.7-e2-6376~58~ubuntu16.04.1) date Thu Nov 23 09:20:08 2017*
%MOMM*%
%LPD*%
G01*
G04 APERTURE LIST*
%ADD10C,0.100000*%
%ADD11C,0.120000*%
%ADD12C,0.152400*%
%ADD13C,0.127000*%
%ADD14C,0.150000*%
%ADD15C,0.050000*%
G04 APERTURE END LIST*
D10*
D11*
X115161000Y-50193000D02*
X115161000Y-51367000D01*
X113439000Y-50193000D02*
X113439000Y-51367000D01*
X115161000Y-57813000D02*
X115161000Y-58987000D01*
X113439000Y-57813000D02*
X113439000Y-58987000D01*
X195481000Y-71338500D02*
X196655000Y-71338500D01*
X195481000Y-73060500D02*
X196655000Y-73060500D01*
X130401000Y-50193000D02*
X130401000Y-51367000D01*
X128679000Y-50193000D02*
X128679000Y-51367000D01*
X130401000Y-57813000D02*
X130401000Y-58987000D01*
X128679000Y-57813000D02*
X128679000Y-58987000D01*
X173327000Y-66901000D02*
X172153000Y-66901000D01*
X173327000Y-65179000D02*
X172153000Y-65179000D01*
X130464500Y-71148000D02*
X130464500Y-72322000D01*
X128742500Y-71148000D02*
X128742500Y-72322000D01*
X129200000Y-92860000D02*
X132420000Y-92860000D01*
X132420000Y-92860000D02*
X132420000Y-87640000D01*
X132420000Y-87640000D02*
X129200000Y-87640000D01*
X129200000Y-87640000D02*
X129200000Y-92860000D01*
X130810000Y-94270000D02*
X130810000Y-92860000D01*
X130810000Y-86230000D02*
X130810000Y-87640000D01*
X139360000Y-92860000D02*
X142580000Y-92860000D01*
X142580000Y-92860000D02*
X142580000Y-87640000D01*
X142580000Y-87640000D02*
X139360000Y-87640000D01*
X139360000Y-87640000D02*
X139360000Y-92860000D01*
X140970000Y-94270000D02*
X140970000Y-92860000D01*
X140970000Y-86230000D02*
X140970000Y-87640000D01*
X98199000Y-42517000D02*
X98199000Y-41343000D01*
X99921000Y-42517000D02*
X99921000Y-41343000D01*
X108359000Y-42517000D02*
X108359000Y-41343000D01*
X110081000Y-42517000D02*
X110081000Y-41343000D01*
X145189000Y-76426000D02*
X145189000Y-75252000D01*
X146911000Y-76426000D02*
X146911000Y-75252000D01*
X130464500Y-64798000D02*
X130464500Y-65972000D01*
X128742500Y-64798000D02*
X128742500Y-65972000D01*
X151790500Y-66734500D02*
X151790500Y-66234500D01*
X150850500Y-66234500D02*
X150850500Y-66734500D01*
X150914000Y-62615000D02*
X150914000Y-63115000D01*
X151854000Y-63115000D02*
X151854000Y-62615000D01*
X138320000Y-43970000D02*
X138320000Y-48070000D01*
X138320000Y-48070000D02*
X163620000Y-48070000D01*
X163620000Y-48070000D02*
X163620000Y-43970000D01*
X163620000Y-43970000D02*
X138320000Y-43970000D01*
X138320000Y-45720000D02*
X138820000Y-45720000D01*
X138820000Y-45720000D02*
X138820000Y-44470000D01*
X138820000Y-44470000D02*
X163120000Y-44470000D01*
X163120000Y-44470000D02*
X163120000Y-45720000D01*
X163120000Y-45720000D02*
X163620000Y-45720000D01*
X138320000Y-46570000D02*
X139320000Y-46570000D01*
X139320000Y-46570000D02*
X139320000Y-48070000D01*
X163620000Y-46570000D02*
X162620000Y-46570000D01*
X162620000Y-46570000D02*
X162620000Y-48070000D01*
X138020000Y-45870000D02*
X138020000Y-48370000D01*
X138020000Y-48370000D02*
X140520000Y-48370000D01*
X131840000Y-44200000D02*
X130670000Y-44200000D01*
X127270000Y-44200000D02*
X128440000Y-44200000D01*
X128030000Y-39620000D02*
X128440000Y-39620000D01*
X131080000Y-39620000D02*
X130670000Y-39620000D01*
X131840000Y-40390000D02*
X131840000Y-44200000D01*
X131840000Y-40390000D02*
X131080000Y-39620000D01*
X127270000Y-40390000D02*
X127270000Y-44200000D01*
X127270000Y-40390000D02*
X128030000Y-39620000D01*
X193671000Y-64466500D02*
X193671000Y-63296500D01*
X193671000Y-59896500D02*
X193671000Y-61066500D01*
X198251000Y-60656500D02*
X198251000Y-61066500D01*
X198251000Y-63706500D02*
X198251000Y-63296500D01*
X197481000Y-64466500D02*
X193671000Y-64466500D01*
X197481000Y-64466500D02*
X198251000Y-63706500D01*
X197481000Y-59896500D02*
X193671000Y-59896500D01*
X197481000Y-59896500D02*
X198251000Y-60656500D01*
X193798000Y-82183000D02*
X193798000Y-81013000D01*
X193798000Y-77613000D02*
X193798000Y-78783000D01*
X198378000Y-78373000D02*
X198378000Y-78783000D01*
X198378000Y-81423000D02*
X198378000Y-81013000D01*
X197608000Y-82183000D02*
X193798000Y-82183000D01*
X197608000Y-82183000D02*
X198378000Y-81423000D01*
X197608000Y-77613000D02*
X193798000Y-77613000D01*
X197608000Y-77613000D02*
X198378000Y-78373000D01*
X172970000Y-60720000D02*
X172970000Y-59550000D01*
X172970000Y-56150000D02*
X172970000Y-57320000D01*
X177550000Y-56910000D02*
X177550000Y-57320000D01*
X177550000Y-59960000D02*
X177550000Y-59550000D01*
X176780000Y-60720000D02*
X172970000Y-60720000D01*
X176780000Y-60720000D02*
X177550000Y-59960000D01*
X176780000Y-56150000D02*
X172970000Y-56150000D01*
X176780000Y-56150000D02*
X177550000Y-56910000D01*
X120410000Y-44200000D02*
X119240000Y-44200000D01*
X115840000Y-44200000D02*
X117010000Y-44200000D01*
X116600000Y-39620000D02*
X117010000Y-39620000D01*
X119650000Y-39620000D02*
X119240000Y-39620000D01*
X120410000Y-40390000D02*
X120410000Y-44200000D01*
X120410000Y-40390000D02*
X119650000Y-39620000D01*
X115840000Y-40390000D02*
X115840000Y-44200000D01*
X115840000Y-40390000D02*
X116600000Y-39620000D01*
X138444000Y-78363000D02*
X137274000Y-78363000D01*
X133874000Y-78363000D02*
X135044000Y-78363000D01*
X134634000Y-73783000D02*
X135044000Y-73783000D01*
X137684000Y-73783000D02*
X137274000Y-73783000D01*
X138444000Y-74553000D02*
X138444000Y-78363000D01*
X138444000Y-74553000D02*
X137684000Y-73783000D01*
X133874000Y-74553000D02*
X133874000Y-78363000D01*
X133874000Y-74553000D02*
X134634000Y-73783000D01*
X99540000Y-53230000D02*
X95440000Y-53230000D01*
X95440000Y-53230000D02*
X95440000Y-63530000D01*
X95440000Y-63530000D02*
X99540000Y-63530000D01*
X99540000Y-63530000D02*
X99540000Y-53230000D01*
X97790000Y-53230000D02*
X97790000Y-53730000D01*
X97790000Y-53730000D02*
X99040000Y-53730000D01*
X99040000Y-53730000D02*
X99040000Y-63030000D01*
X99040000Y-63030000D02*
X97790000Y-63030000D01*
X97790000Y-63030000D02*
X97790000Y-63530000D01*
X96940000Y-53230000D02*
X96940000Y-54230000D01*
X96940000Y-54230000D02*
X95440000Y-54230000D01*
X96940000Y-63530000D02*
X96940000Y-62530000D01*
X96940000Y-62530000D02*
X95440000Y-62530000D01*
X97640000Y-52930000D02*
X95140000Y-52930000D01*
X95140000Y-52930000D02*
X95140000Y-55430000D01*
X171340000Y-43970000D02*
X171340000Y-48070000D01*
X171340000Y-48070000D02*
X179140000Y-48070000D01*
X179140000Y-48070000D02*
X179140000Y-43970000D01*
X179140000Y-43970000D02*
X171340000Y-43970000D01*
X171340000Y-45720000D02*
X171840000Y-45720000D01*
X171840000Y-45720000D02*
X171840000Y-44470000D01*
X171840000Y-44470000D02*
X178640000Y-44470000D01*
X178640000Y-44470000D02*
X178640000Y-45720000D01*
X178640000Y-45720000D02*
X179140000Y-45720000D01*
X171340000Y-46570000D02*
X172340000Y-46570000D01*
X172340000Y-46570000D02*
X172340000Y-48070000D01*
X179140000Y-46570000D02*
X178140000Y-46570000D01*
X178140000Y-46570000D02*
X178140000Y-48070000D01*
X171040000Y-45870000D02*
X171040000Y-48370000D01*
X171040000Y-48370000D02*
X173540000Y-48370000D01*
X98860000Y-76470000D02*
X98860000Y-78470000D01*
X96720000Y-78470000D02*
X96720000Y-76470000D01*
X98860000Y-82820000D02*
X98860000Y-84820000D01*
X96720000Y-84820000D02*
X96720000Y-82820000D01*
X105680000Y-51000000D02*
X107680000Y-51000000D01*
X107680000Y-53140000D02*
X105680000Y-53140000D01*
X105680000Y-58620000D02*
X107680000Y-58620000D01*
X107680000Y-60760000D02*
X105680000Y-60760000D01*
X103140000Y-84020000D02*
X105140000Y-84020000D01*
X105140000Y-86160000D02*
X103140000Y-86160000D01*
X109490000Y-84020000D02*
X111490000Y-84020000D01*
X111490000Y-86160000D02*
X109490000Y-86160000D01*
X120920000Y-51000000D02*
X122920000Y-51000000D01*
X122920000Y-53140000D02*
X120920000Y-53140000D01*
X121047000Y-58620000D02*
X123047000Y-58620000D01*
X123047000Y-60760000D02*
X121047000Y-60760000D01*
X115840000Y-84020000D02*
X117840000Y-84020000D01*
X117840000Y-86160000D02*
X115840000Y-86160000D01*
X117040000Y-79740000D02*
X117040000Y-77740000D01*
X119180000Y-77740000D02*
X119180000Y-79740000D01*
X112760000Y-78540000D02*
X110760000Y-78540000D01*
X110760000Y-76400000D02*
X112760000Y-76400000D01*
X105140000Y-78540000D02*
X103140000Y-78540000D01*
X103140000Y-76400000D02*
X105140000Y-76400000D01*
X101990000Y-72990000D02*
X101990000Y-71790000D01*
X103750000Y-71790000D02*
X103750000Y-72990000D01*
X106950000Y-69986500D02*
X108950000Y-69986500D01*
X108950000Y-72126500D02*
X106950000Y-72126500D01*
X113300000Y-70050000D02*
X115300000Y-70050000D01*
X115300000Y-72190000D02*
X113300000Y-72190000D01*
X119580000Y-73199500D02*
X119580000Y-71199500D01*
X121720000Y-71199500D02*
X121720000Y-73199500D01*
X156410000Y-92440000D02*
X156410000Y-90440000D01*
X158550000Y-90440000D02*
X158550000Y-92440000D01*
X152200000Y-90440000D02*
X152200000Y-92440000D01*
X150060000Y-92440000D02*
X150060000Y-90440000D01*
X119580000Y-66659000D02*
X119580000Y-64659000D01*
X121720000Y-64659000D02*
X121720000Y-66659000D01*
D12*
X144500600Y-60553600D02*
X145516600Y-60553600D01*
X133908800Y-66370200D02*
X134924800Y-66370200D01*
X142494000Y-60020200D02*
X142494000Y-59740800D01*
X136906000Y-66979800D02*
X136906000Y-67259200D01*
X136906000Y-67259200D02*
X142494000Y-67259200D01*
X142494000Y-67259200D02*
X142494000Y-66979800D01*
X142494000Y-59740800D02*
X140004800Y-59740800D01*
X140004800Y-59740800D02*
X139395200Y-59740800D01*
X139395200Y-59740800D02*
X136906000Y-59740800D01*
X136906000Y-59740800D02*
X136906000Y-60020200D01*
X140004800Y-59740800D02*
G75*
G02X139395200Y-59740800I-304800J0D01*
G01*
D11*
X154701000Y-64895000D02*
X154701000Y-58495000D01*
X159751000Y-64895000D02*
X159751000Y-58495000D01*
X159751000Y-64895000D02*
G75*
G02X154701000Y-64895000I-2525000J0D01*
G01*
X159751000Y-58495000D02*
G75*
G03X154701000Y-58495000I-2525000J0D01*
G01*
X197423500Y-89101500D02*
X197773500Y-89101500D01*
X197773500Y-89101500D02*
X197773500Y-90601500D01*
X192773500Y-89101500D02*
X195973500Y-89101500D01*
X190973500Y-90601500D02*
X190973500Y-89101500D01*
X190973500Y-89101500D02*
X191373500Y-89101500D01*
X171653500Y-72199500D02*
X174123500Y-72199500D01*
X172190833Y-71310500D02*
X172190833Y-73088500D01*
X172190833Y-72199500D02*
X173376167Y-71310500D01*
X173376167Y-71310500D02*
X173376167Y-73088500D01*
X173376167Y-73088500D02*
X172190833Y-72199500D01*
X176733500Y-72199500D02*
G75*
G03X176733500Y-72199500I-1410000J0D01*
G01*
X184044000Y-85471000D02*
G75*
G03X184044000Y-85471000I-8590000J0D01*
G01*
X175454000Y-76921000D02*
X175454000Y-94021000D01*
X175494000Y-76921000D02*
X175494000Y-94021000D01*
X175534000Y-76921000D02*
X175534000Y-94021000D01*
X175574000Y-76921000D02*
X175574000Y-94021000D01*
X175614000Y-76922000D02*
X175614000Y-94020000D01*
X175654000Y-76923000D02*
X175654000Y-94019000D01*
X175694000Y-76924000D02*
X175694000Y-94018000D01*
X175734000Y-76925000D02*
X175734000Y-94017000D01*
X175774000Y-76926000D02*
X175774000Y-94016000D01*
X175814000Y-76928000D02*
X175814000Y-94014000D01*
X175854000Y-76930000D02*
X175854000Y-94012000D01*
X175894000Y-76932000D02*
X175894000Y-94010000D01*
X175934000Y-76934000D02*
X175934000Y-94008000D01*
X175974000Y-76936000D02*
X175974000Y-94006000D01*
X176014000Y-76939000D02*
X176014000Y-94003000D01*
X176054000Y-76941000D02*
X176054000Y-94001000D01*
X176094000Y-76944000D02*
X176094000Y-93998000D01*
X176134000Y-76947000D02*
X176134000Y-93995000D01*
X176175000Y-76951000D02*
X176175000Y-93991000D01*
X176215000Y-76954000D02*
X176215000Y-93988000D01*
X176255000Y-76958000D02*
X176255000Y-93984000D01*
X176295000Y-76962000D02*
X176295000Y-93980000D01*
X176335000Y-76966000D02*
X176335000Y-93976000D01*
X176375000Y-76970000D02*
X176375000Y-93972000D01*
X176415000Y-76974000D02*
X176415000Y-93968000D01*
X176455000Y-76979000D02*
X176455000Y-93963000D01*
X176495000Y-76984000D02*
X176495000Y-93958000D01*
X176535000Y-76989000D02*
X176535000Y-93953000D01*
X176575000Y-76994000D02*
X176575000Y-93948000D01*
X176615000Y-76999000D02*
X176615000Y-93943000D01*
X176655000Y-77005000D02*
X176655000Y-93937000D01*
X176695000Y-77010000D02*
X176695000Y-93932000D01*
X176735000Y-77016000D02*
X176735000Y-93926000D01*
X176775000Y-77023000D02*
X176775000Y-93919000D01*
X176815000Y-77029000D02*
X176815000Y-93913000D01*
X176855000Y-77035000D02*
X176855000Y-93907000D01*
X176895000Y-77042000D02*
X176895000Y-93900000D01*
X176935000Y-77049000D02*
X176935000Y-93893000D01*
X176975000Y-77056000D02*
X176975000Y-93886000D01*
X177015000Y-77063000D02*
X177015000Y-93879000D01*
X177055000Y-77071000D02*
X177055000Y-93871000D01*
X177095000Y-77079000D02*
X177095000Y-93863000D01*
X177135000Y-77086000D02*
X177135000Y-93856000D01*
X177175000Y-77094000D02*
X177175000Y-93848000D01*
X177215000Y-77103000D02*
X177215000Y-93839000D01*
X177255000Y-77111000D02*
X177255000Y-93831000D01*
X177295000Y-77120000D02*
X177295000Y-93822000D01*
X177335000Y-77129000D02*
X177335000Y-93813000D01*
X177375000Y-77138000D02*
X177375000Y-93804000D01*
X177415000Y-77147000D02*
X177415000Y-93795000D01*
X177455000Y-77157000D02*
X177455000Y-93785000D01*
X177495000Y-77166000D02*
X177495000Y-93776000D01*
X177535000Y-77176000D02*
X177535000Y-93766000D01*
X177575000Y-77186000D02*
X177575000Y-93756000D01*
X177615000Y-77197000D02*
X177615000Y-93745000D01*
X177655000Y-77207000D02*
X177655000Y-93735000D01*
X177695000Y-77218000D02*
X177695000Y-93724000D01*
X177735000Y-77229000D02*
X177735000Y-93713000D01*
X177775000Y-77240000D02*
X177775000Y-93702000D01*
X177815000Y-77251000D02*
X177815000Y-93691000D01*
X177855000Y-77263000D02*
X177855000Y-84091000D01*
X177855000Y-86851000D02*
X177855000Y-93679000D01*
X177895000Y-77274000D02*
X177895000Y-84091000D01*
X177895000Y-86851000D02*
X177895000Y-93668000D01*
X177935000Y-77286000D02*
X177935000Y-84091000D01*
X177935000Y-86851000D02*
X177935000Y-93656000D01*
X177975000Y-77298000D02*
X177975000Y-84091000D01*
X177975000Y-86851000D02*
X177975000Y-93644000D01*
X178015000Y-77311000D02*
X178015000Y-84091000D01*
X178015000Y-86851000D02*
X178015000Y-93631000D01*
X178055000Y-77323000D02*
X178055000Y-84091000D01*
X178055000Y-86851000D02*
X178055000Y-93619000D01*
X178095000Y-77336000D02*
X178095000Y-84091000D01*
X178095000Y-86851000D02*
X178095000Y-93606000D01*
X178135000Y-77349000D02*
X178135000Y-84091000D01*
X178135000Y-86851000D02*
X178135000Y-93593000D01*
X178175000Y-77363000D02*
X178175000Y-84091000D01*
X178175000Y-86851000D02*
X178175000Y-93579000D01*
X178215000Y-77376000D02*
X178215000Y-84091000D01*
X178215000Y-86851000D02*
X178215000Y-93566000D01*
X178255000Y-77390000D02*
X178255000Y-84091000D01*
X178255000Y-86851000D02*
X178255000Y-93552000D01*
X178295000Y-77404000D02*
X178295000Y-84091000D01*
X178295000Y-86851000D02*
X178295000Y-93538000D01*
X178335000Y-77418000D02*
X178335000Y-84091000D01*
X178335000Y-86851000D02*
X178335000Y-93524000D01*
X178375000Y-77432000D02*
X178375000Y-84091000D01*
X178375000Y-86851000D02*
X178375000Y-93510000D01*
X178415000Y-77447000D02*
X178415000Y-84091000D01*
X178415000Y-86851000D02*
X178415000Y-93495000D01*
X178455000Y-77461000D02*
X178455000Y-84091000D01*
X178455000Y-86851000D02*
X178455000Y-93481000D01*
X178495000Y-77476000D02*
X178495000Y-84091000D01*
X178495000Y-86851000D02*
X178495000Y-93466000D01*
X178535000Y-77492000D02*
X178535000Y-84091000D01*
X178535000Y-86851000D02*
X178535000Y-93450000D01*
X178575000Y-77507000D02*
X178575000Y-84091000D01*
X178575000Y-86851000D02*
X178575000Y-93435000D01*
X178615000Y-77523000D02*
X178615000Y-84091000D01*
X178615000Y-86851000D02*
X178615000Y-93419000D01*
X178655000Y-77539000D02*
X178655000Y-84091000D01*
X178655000Y-86851000D02*
X178655000Y-93403000D01*
X178695000Y-77555000D02*
X178695000Y-84091000D01*
X178695000Y-86851000D02*
X178695000Y-93387000D01*
X178735000Y-77571000D02*
X178735000Y-84091000D01*
X178735000Y-86851000D02*
X178735000Y-93371000D01*
X178775000Y-77588000D02*
X178775000Y-84091000D01*
X178775000Y-86851000D02*
X178775000Y-93354000D01*
X178815000Y-77605000D02*
X178815000Y-84091000D01*
X178815000Y-86851000D02*
X178815000Y-93337000D01*
X178855000Y-77622000D02*
X178855000Y-84091000D01*
X178855000Y-86851000D02*
X178855000Y-93320000D01*
X178895000Y-77639000D02*
X178895000Y-84091000D01*
X178895000Y-86851000D02*
X178895000Y-93303000D01*
X178935000Y-77657000D02*
X178935000Y-84091000D01*
X178935000Y-86851000D02*
X178935000Y-93285000D01*
X178975000Y-77675000D02*
X178975000Y-84091000D01*
X178975000Y-86851000D02*
X178975000Y-93267000D01*
X179015000Y-77693000D02*
X179015000Y-84091000D01*
X179015000Y-86851000D02*
X179015000Y-93249000D01*
X179055000Y-77711000D02*
X179055000Y-84091000D01*
X179055000Y-86851000D02*
X179055000Y-93231000D01*
X179095000Y-77730000D02*
X179095000Y-84091000D01*
X179095000Y-86851000D02*
X179095000Y-93212000D01*
X179135000Y-77749000D02*
X179135000Y-84091000D01*
X179135000Y-86851000D02*
X179135000Y-93193000D01*
X179175000Y-77768000D02*
X179175000Y-84091000D01*
X179175000Y-86851000D02*
X179175000Y-93174000D01*
X179215000Y-77787000D02*
X179215000Y-84091000D01*
X179215000Y-86851000D02*
X179215000Y-93155000D01*
X179255000Y-77807000D02*
X179255000Y-84091000D01*
X179255000Y-86851000D02*
X179255000Y-93135000D01*
X179295000Y-77827000D02*
X179295000Y-84091000D01*
X179295000Y-86851000D02*
X179295000Y-93115000D01*
X179335000Y-77847000D02*
X179335000Y-84091000D01*
X179335000Y-86851000D02*
X179335000Y-93095000D01*
X179375000Y-77867000D02*
X179375000Y-84091000D01*
X179375000Y-86851000D02*
X179375000Y-93075000D01*
X179415000Y-77888000D02*
X179415000Y-84091000D01*
X179415000Y-86851000D02*
X179415000Y-93054000D01*
X179455000Y-77909000D02*
X179455000Y-84091000D01*
X179455000Y-86851000D02*
X179455000Y-93033000D01*
X179495000Y-77930000D02*
X179495000Y-84091000D01*
X179495000Y-86851000D02*
X179495000Y-93012000D01*
X179535000Y-77951000D02*
X179535000Y-84091000D01*
X179535000Y-86851000D02*
X179535000Y-92991000D01*
X179575000Y-77973000D02*
X179575000Y-84091000D01*
X179575000Y-86851000D02*
X179575000Y-92969000D01*
X179615000Y-77995000D02*
X179615000Y-84091000D01*
X179615000Y-86851000D02*
X179615000Y-92947000D01*
X179655000Y-78017000D02*
X179655000Y-84091000D01*
X179655000Y-86851000D02*
X179655000Y-92925000D01*
X179695000Y-78040000D02*
X179695000Y-84091000D01*
X179695000Y-86851000D02*
X179695000Y-92902000D01*
X179735000Y-78063000D02*
X179735000Y-84091000D01*
X179735000Y-86851000D02*
X179735000Y-92879000D01*
X179775000Y-78086000D02*
X179775000Y-84091000D01*
X179775000Y-86851000D02*
X179775000Y-92856000D01*
X179815000Y-78109000D02*
X179815000Y-84091000D01*
X179815000Y-86851000D02*
X179815000Y-92833000D01*
X179855000Y-78133000D02*
X179855000Y-84091000D01*
X179855000Y-86851000D02*
X179855000Y-92809000D01*
X179895000Y-78157000D02*
X179895000Y-84091000D01*
X179895000Y-86851000D02*
X179895000Y-92785000D01*
X179935000Y-78181000D02*
X179935000Y-84091000D01*
X179935000Y-86851000D02*
X179935000Y-92761000D01*
X179975000Y-78206000D02*
X179975000Y-84091000D01*
X179975000Y-86851000D02*
X179975000Y-92736000D01*
X180015000Y-78231000D02*
X180015000Y-84091000D01*
X180015000Y-86851000D02*
X180015000Y-92711000D01*
X180055000Y-78256000D02*
X180055000Y-84091000D01*
X180055000Y-86851000D02*
X180055000Y-92686000D01*
X180095000Y-78281000D02*
X180095000Y-84091000D01*
X180095000Y-86851000D02*
X180095000Y-92661000D01*
X180135000Y-78307000D02*
X180135000Y-84091000D01*
X180135000Y-86851000D02*
X180135000Y-92635000D01*
X180175000Y-78333000D02*
X180175000Y-84091000D01*
X180175000Y-86851000D02*
X180175000Y-92609000D01*
X180215000Y-78360000D02*
X180215000Y-84091000D01*
X180215000Y-86851000D02*
X180215000Y-92582000D01*
X180255000Y-78387000D02*
X180255000Y-84091000D01*
X180255000Y-86851000D02*
X180255000Y-92555000D01*
X180295000Y-78414000D02*
X180295000Y-84091000D01*
X180295000Y-86851000D02*
X180295000Y-92528000D01*
X180335000Y-78441000D02*
X180335000Y-84091000D01*
X180335000Y-86851000D02*
X180335000Y-92501000D01*
X180375000Y-78469000D02*
X180375000Y-84091000D01*
X180375000Y-86851000D02*
X180375000Y-92473000D01*
X180415000Y-78497000D02*
X180415000Y-84091000D01*
X180415000Y-86851000D02*
X180415000Y-92445000D01*
X180455000Y-78526000D02*
X180455000Y-84091000D01*
X180455000Y-86851000D02*
X180455000Y-92416000D01*
X180495000Y-78554000D02*
X180495000Y-84091000D01*
X180495000Y-86851000D02*
X180495000Y-92388000D01*
X180535000Y-78584000D02*
X180535000Y-84091000D01*
X180535000Y-86851000D02*
X180535000Y-92358000D01*
X180575000Y-78613000D02*
X180575000Y-84091000D01*
X180575000Y-86851000D02*
X180575000Y-92329000D01*
X180615000Y-78643000D02*
X180615000Y-92299000D01*
X180655000Y-78673000D02*
X180655000Y-92269000D01*
X180695000Y-78704000D02*
X180695000Y-92238000D01*
X180735000Y-78735000D02*
X180735000Y-92207000D01*
X180775000Y-78766000D02*
X180775000Y-92176000D01*
X180815000Y-78798000D02*
X180815000Y-92144000D01*
X180855000Y-78830000D02*
X180855000Y-92112000D01*
X180895000Y-78863000D02*
X180895000Y-92079000D01*
X180935000Y-78896000D02*
X180935000Y-92046000D01*
X180975000Y-78929000D02*
X180975000Y-92013000D01*
X181015000Y-78963000D02*
X181015000Y-91979000D01*
X181055000Y-78997000D02*
X181055000Y-91945000D01*
X181095000Y-79031000D02*
X181095000Y-91911000D01*
X181135000Y-79066000D02*
X181135000Y-91876000D01*
X181175000Y-79102000D02*
X181175000Y-91840000D01*
X181215000Y-79138000D02*
X181215000Y-91804000D01*
X181255000Y-79174000D02*
X181255000Y-91768000D01*
X181295000Y-79211000D02*
X181295000Y-91731000D01*
X181335000Y-79248000D02*
X181335000Y-91694000D01*
X181375000Y-79286000D02*
X181375000Y-91656000D01*
X181415000Y-79325000D02*
X181415000Y-91617000D01*
X181455000Y-79363000D02*
X181455000Y-91579000D01*
X181495000Y-79403000D02*
X181495000Y-91539000D01*
X181535000Y-79442000D02*
X181535000Y-91500000D01*
X181575000Y-79483000D02*
X181575000Y-91459000D01*
X181615000Y-79524000D02*
X181615000Y-91418000D01*
X181655000Y-79565000D02*
X181655000Y-91377000D01*
X181695000Y-79607000D02*
X181695000Y-91335000D01*
X181735000Y-79650000D02*
X181735000Y-91292000D01*
X181775000Y-79693000D02*
X181775000Y-91249000D01*
X181815000Y-79737000D02*
X181815000Y-91205000D01*
X181855000Y-79781000D02*
X181855000Y-91161000D01*
X181895000Y-79826000D02*
X181895000Y-91116000D01*
X181935000Y-79872000D02*
X181935000Y-91070000D01*
X181975000Y-79918000D02*
X181975000Y-91024000D01*
X182015000Y-79965000D02*
X182015000Y-90977000D01*
X182055000Y-80012000D02*
X182055000Y-90930000D01*
X182095000Y-80061000D02*
X182095000Y-90881000D01*
X182135000Y-80110000D02*
X182135000Y-90832000D01*
X182175000Y-80160000D02*
X182175000Y-90782000D01*
X182215000Y-80210000D02*
X182215000Y-90732000D01*
X182255000Y-80262000D02*
X182255000Y-90680000D01*
X182295000Y-80314000D02*
X182295000Y-90628000D01*
X182335000Y-80367000D02*
X182335000Y-90575000D01*
X182375000Y-80421000D02*
X182375000Y-90521000D01*
X182415000Y-80476000D02*
X182415000Y-90466000D01*
X182455000Y-80532000D02*
X182455000Y-90410000D01*
X182495000Y-80588000D02*
X182495000Y-90354000D01*
X182535000Y-80646000D02*
X182535000Y-90296000D01*
X182575000Y-80705000D02*
X182575000Y-90237000D01*
X182615000Y-80765000D02*
X182615000Y-90177000D01*
X182655000Y-80826000D02*
X182655000Y-90116000D01*
X182695000Y-80888000D02*
X182695000Y-90054000D01*
X182735000Y-80951000D02*
X182735000Y-89991000D01*
X182775000Y-81015000D02*
X182775000Y-89927000D01*
X182815000Y-81081000D02*
X182815000Y-89861000D01*
X182855000Y-81148000D02*
X182855000Y-89794000D01*
X182895000Y-81217000D02*
X182895000Y-89725000D01*
X182935000Y-81287000D02*
X182935000Y-89655000D01*
X182975000Y-81359000D02*
X182975000Y-89583000D01*
X183015000Y-81432000D02*
X183015000Y-89510000D01*
X183055000Y-81507000D02*
X183055000Y-89435000D01*
X183095000Y-81584000D02*
X183095000Y-89358000D01*
X183135000Y-81663000D02*
X183135000Y-89279000D01*
X183175000Y-81744000D02*
X183175000Y-89198000D01*
X183215000Y-81827000D02*
X183215000Y-89115000D01*
X183255000Y-81912000D02*
X183255000Y-89030000D01*
X183295000Y-82000000D02*
X183295000Y-88942000D01*
X183335000Y-82091000D02*
X183335000Y-88851000D01*
X183375000Y-82185000D02*
X183375000Y-88757000D01*
X183415000Y-82281000D02*
X183415000Y-88661000D01*
X183455000Y-82382000D02*
X183455000Y-88560000D01*
X183495000Y-82486000D02*
X183495000Y-88456000D01*
X183535000Y-82595000D02*
X183535000Y-88347000D01*
X183575000Y-82708000D02*
X183575000Y-88234000D01*
X183615000Y-82827000D02*
X183615000Y-88115000D01*
X183654000Y-82952000D02*
X183654000Y-87990000D01*
X183694000Y-83083000D02*
X183694000Y-87859000D01*
X183734000Y-83224000D02*
X183734000Y-87718000D01*
X183774000Y-83374000D02*
X183774000Y-87568000D01*
X183814000Y-83536000D02*
X183814000Y-87406000D01*
X183854000Y-83714000D02*
X183854000Y-87228000D01*
X183894000Y-83912000D02*
X183894000Y-87030000D01*
X183934000Y-84140000D02*
X183934000Y-86802000D01*
X183974000Y-84416000D02*
X183974000Y-86526000D01*
X184014000Y-84793000D02*
X184014000Y-86149000D01*
X168504000Y-85471000D02*
X170304000Y-85471000D01*
X169404000Y-84571000D02*
X169404000Y-86371000D01*
D13*
G36*
X158242000Y-75819000D02*
X157480000Y-76708000D01*
X156718000Y-75819000D01*
X158242000Y-75819000D01*
G37*
X158242000Y-75819000D02*
X157480000Y-76708000D01*
X156718000Y-75819000D01*
X158242000Y-75819000D01*
X158830000Y-74055000D02*
X158830000Y-78345000D01*
X156130000Y-78345000D02*
X156130000Y-74055000D01*
X158780000Y-78350000D02*
X158480000Y-78350000D01*
X156180000Y-78350000D02*
X156480000Y-78350000D01*
X156180000Y-74050000D02*
X156480000Y-74050000D01*
X158780000Y-74050000D02*
X158480000Y-74050000D01*
G36*
X159639000Y-84328000D02*
X160528000Y-85090000D01*
X159639000Y-85852000D01*
X159639000Y-84328000D01*
G37*
X159639000Y-84328000D02*
X160528000Y-85090000D01*
X159639000Y-85852000D01*
X159639000Y-84328000D01*
X157875000Y-83740000D02*
X162165000Y-83740000D01*
X162165000Y-86440000D02*
X157875000Y-86440000D01*
X162170000Y-83790000D02*
X162170000Y-84090000D01*
X162170000Y-86390000D02*
X162170000Y-86090000D01*
X157870000Y-86390000D02*
X157870000Y-86090000D01*
X157870000Y-83790000D02*
X157870000Y-84090000D01*
D14*
X116767143Y-50946666D02*
X116814762Y-50994285D01*
X116862381Y-51137142D01*
X116862381Y-51232380D01*
X116814762Y-51375238D01*
X116719524Y-51470476D01*
X116624286Y-51518095D01*
X116433810Y-51565714D01*
X116290952Y-51565714D01*
X116100476Y-51518095D01*
X116005238Y-51470476D01*
X115910000Y-51375238D01*
X115862381Y-51232380D01*
X115862381Y-51137142D01*
X115910000Y-50994285D01*
X115957619Y-50946666D01*
X116862381Y-49994285D02*
X116862381Y-50565714D01*
X116862381Y-50280000D02*
X115862381Y-50280000D01*
X116005238Y-50375238D01*
X116100476Y-50470476D01*
X116148095Y-50565714D01*
X116767143Y-58566666D02*
X116814762Y-58614285D01*
X116862381Y-58757142D01*
X116862381Y-58852380D01*
X116814762Y-58995238D01*
X116719524Y-59090476D01*
X116624286Y-59138095D01*
X116433810Y-59185714D01*
X116290952Y-59185714D01*
X116100476Y-59138095D01*
X116005238Y-59090476D01*
X115910000Y-58995238D01*
X115862381Y-58852380D01*
X115862381Y-58757142D01*
X115910000Y-58614285D01*
X115957619Y-58566666D01*
X115957619Y-58185714D02*
X115910000Y-58138095D01*
X115862381Y-58042857D01*
X115862381Y-57804761D01*
X115910000Y-57709523D01*
X115957619Y-57661904D01*
X116052857Y-57614285D01*
X116148095Y-57614285D01*
X116290952Y-57661904D01*
X116862381Y-58233333D01*
X116862381Y-57614285D01*
X195901334Y-70446643D02*
X195853715Y-70494262D01*
X195710858Y-70541881D01*
X195615620Y-70541881D01*
X195472762Y-70494262D01*
X195377524Y-70399024D01*
X195329905Y-70303786D01*
X195282286Y-70113310D01*
X195282286Y-69970452D01*
X195329905Y-69779976D01*
X195377524Y-69684738D01*
X195472762Y-69589500D01*
X195615620Y-69541881D01*
X195710858Y-69541881D01*
X195853715Y-69589500D01*
X195901334Y-69637119D01*
X196234667Y-69541881D02*
X196853715Y-69541881D01*
X196520381Y-69922833D01*
X196663239Y-69922833D01*
X196758477Y-69970452D01*
X196806096Y-70018071D01*
X196853715Y-70113310D01*
X196853715Y-70351405D01*
X196806096Y-70446643D01*
X196758477Y-70494262D01*
X196663239Y-70541881D01*
X196377524Y-70541881D01*
X196282286Y-70494262D01*
X196234667Y-70446643D01*
X132007143Y-50946666D02*
X132054762Y-50994285D01*
X132102381Y-51137142D01*
X132102381Y-51232380D01*
X132054762Y-51375238D01*
X131959524Y-51470476D01*
X131864286Y-51518095D01*
X131673810Y-51565714D01*
X131530952Y-51565714D01*
X131340476Y-51518095D01*
X131245238Y-51470476D01*
X131150000Y-51375238D01*
X131102381Y-51232380D01*
X131102381Y-51137142D01*
X131150000Y-50994285D01*
X131197619Y-50946666D01*
X131435714Y-50089523D02*
X132102381Y-50089523D01*
X131054762Y-50327619D02*
X131769048Y-50565714D01*
X131769048Y-49946666D01*
X132007143Y-58566666D02*
X132054762Y-58614285D01*
X132102381Y-58757142D01*
X132102381Y-58852380D01*
X132054762Y-58995238D01*
X131959524Y-59090476D01*
X131864286Y-59138095D01*
X131673810Y-59185714D01*
X131530952Y-59185714D01*
X131340476Y-59138095D01*
X131245238Y-59090476D01*
X131150000Y-58995238D01*
X131102381Y-58852380D01*
X131102381Y-58757142D01*
X131150000Y-58614285D01*
X131197619Y-58566666D01*
X131102381Y-57661904D02*
X131102381Y-58138095D01*
X131578571Y-58185714D01*
X131530952Y-58138095D01*
X131483333Y-58042857D01*
X131483333Y-57804761D01*
X131530952Y-57709523D01*
X131578571Y-57661904D01*
X131673810Y-57614285D01*
X131911905Y-57614285D01*
X132007143Y-57661904D01*
X132054762Y-57709523D01*
X132102381Y-57804761D01*
X132102381Y-58042857D01*
X132054762Y-58138095D01*
X132007143Y-58185714D01*
X172573334Y-68507143D02*
X172525715Y-68554762D01*
X172382858Y-68602381D01*
X172287620Y-68602381D01*
X172144762Y-68554762D01*
X172049524Y-68459524D01*
X172001905Y-68364286D01*
X171954286Y-68173810D01*
X171954286Y-68030952D01*
X172001905Y-67840476D01*
X172049524Y-67745238D01*
X172144762Y-67650000D01*
X172287620Y-67602381D01*
X172382858Y-67602381D01*
X172525715Y-67650000D01*
X172573334Y-67697619D01*
X173430477Y-67602381D02*
X173240000Y-67602381D01*
X173144762Y-67650000D01*
X173097143Y-67697619D01*
X173001905Y-67840476D01*
X172954286Y-68030952D01*
X172954286Y-68411905D01*
X173001905Y-68507143D01*
X173049524Y-68554762D01*
X173144762Y-68602381D01*
X173335239Y-68602381D01*
X173430477Y-68554762D01*
X173478096Y-68507143D01*
X173525715Y-68411905D01*
X173525715Y-68173810D01*
X173478096Y-68078571D01*
X173430477Y-68030952D01*
X173335239Y-67983333D01*
X173144762Y-67983333D01*
X173049524Y-68030952D01*
X173001905Y-68078571D01*
X172954286Y-68173810D01*
X132070643Y-71901666D02*
X132118262Y-71949285D01*
X132165881Y-72092142D01*
X132165881Y-72187380D01*
X132118262Y-72330238D01*
X132023024Y-72425476D01*
X131927786Y-72473095D01*
X131737310Y-72520714D01*
X131594452Y-72520714D01*
X131403976Y-72473095D01*
X131308738Y-72425476D01*
X131213500Y-72330238D01*
X131165881Y-72187380D01*
X131165881Y-72092142D01*
X131213500Y-71949285D01*
X131261119Y-71901666D01*
X131165881Y-71568333D02*
X131165881Y-70901666D01*
X132165881Y-71330238D01*
X128557143Y-90416666D02*
X128604762Y-90464285D01*
X128652381Y-90607142D01*
X128652381Y-90702380D01*
X128604762Y-90845238D01*
X128509524Y-90940476D01*
X128414286Y-90988095D01*
X128223810Y-91035714D01*
X128080952Y-91035714D01*
X127890476Y-90988095D01*
X127795238Y-90940476D01*
X127700000Y-90845238D01*
X127652381Y-90702380D01*
X127652381Y-90607142D01*
X127700000Y-90464285D01*
X127747619Y-90416666D01*
X128080952Y-89845238D02*
X128033333Y-89940476D01*
X127985714Y-89988095D01*
X127890476Y-90035714D01*
X127842857Y-90035714D01*
X127747619Y-89988095D01*
X127700000Y-89940476D01*
X127652381Y-89845238D01*
X127652381Y-89654761D01*
X127700000Y-89559523D01*
X127747619Y-89511904D01*
X127842857Y-89464285D01*
X127890476Y-89464285D01*
X127985714Y-89511904D01*
X128033333Y-89559523D01*
X128080952Y-89654761D01*
X128080952Y-89845238D01*
X128128571Y-89940476D01*
X128176190Y-89988095D01*
X128271429Y-90035714D01*
X128461905Y-90035714D01*
X128557143Y-89988095D01*
X128604762Y-89940476D01*
X128652381Y-89845238D01*
X128652381Y-89654761D01*
X128604762Y-89559523D01*
X128557143Y-89511904D01*
X128461905Y-89464285D01*
X128271429Y-89464285D01*
X128176190Y-89511904D01*
X128128571Y-89559523D01*
X128080952Y-89654761D01*
X138717143Y-90416666D02*
X138764762Y-90464285D01*
X138812381Y-90607142D01*
X138812381Y-90702380D01*
X138764762Y-90845238D01*
X138669524Y-90940476D01*
X138574286Y-90988095D01*
X138383810Y-91035714D01*
X138240952Y-91035714D01*
X138050476Y-90988095D01*
X137955238Y-90940476D01*
X137860000Y-90845238D01*
X137812381Y-90702380D01*
X137812381Y-90607142D01*
X137860000Y-90464285D01*
X137907619Y-90416666D01*
X138812381Y-89940476D02*
X138812381Y-89750000D01*
X138764762Y-89654761D01*
X138717143Y-89607142D01*
X138574286Y-89511904D01*
X138383810Y-89464285D01*
X138002857Y-89464285D01*
X137907619Y-89511904D01*
X137860000Y-89559523D01*
X137812381Y-89654761D01*
X137812381Y-89845238D01*
X137860000Y-89940476D01*
X137907619Y-89988095D01*
X138002857Y-90035714D01*
X138240952Y-90035714D01*
X138336190Y-89988095D01*
X138383810Y-89940476D01*
X138431429Y-89845238D01*
X138431429Y-89654761D01*
X138383810Y-89559523D01*
X138336190Y-89511904D01*
X138240952Y-89464285D01*
X97307143Y-42572857D02*
X97354762Y-42620476D01*
X97402381Y-42763333D01*
X97402381Y-42858571D01*
X97354762Y-43001429D01*
X97259524Y-43096667D01*
X97164286Y-43144286D01*
X96973810Y-43191905D01*
X96830952Y-43191905D01*
X96640476Y-43144286D01*
X96545238Y-43096667D01*
X96450000Y-43001429D01*
X96402381Y-42858571D01*
X96402381Y-42763333D01*
X96450000Y-42620476D01*
X96497619Y-42572857D01*
X97402381Y-41620476D02*
X97402381Y-42191905D01*
X97402381Y-41906191D02*
X96402381Y-41906191D01*
X96545238Y-42001429D01*
X96640476Y-42096667D01*
X96688095Y-42191905D01*
X96402381Y-41001429D02*
X96402381Y-40906190D01*
X96450000Y-40810952D01*
X96497619Y-40763333D01*
X96592857Y-40715714D01*
X96783333Y-40668095D01*
X97021429Y-40668095D01*
X97211905Y-40715714D01*
X97307143Y-40763333D01*
X97354762Y-40810952D01*
X97402381Y-40906190D01*
X97402381Y-41001429D01*
X97354762Y-41096667D01*
X97307143Y-41144286D01*
X97211905Y-41191905D01*
X97021429Y-41239524D01*
X96783333Y-41239524D01*
X96592857Y-41191905D01*
X96497619Y-41144286D01*
X96450000Y-41096667D01*
X96402381Y-41001429D01*
X107467143Y-42572857D02*
X107514762Y-42620476D01*
X107562381Y-42763333D01*
X107562381Y-42858571D01*
X107514762Y-43001429D01*
X107419524Y-43096667D01*
X107324286Y-43144286D01*
X107133810Y-43191905D01*
X106990952Y-43191905D01*
X106800476Y-43144286D01*
X106705238Y-43096667D01*
X106610000Y-43001429D01*
X106562381Y-42858571D01*
X106562381Y-42763333D01*
X106610000Y-42620476D01*
X106657619Y-42572857D01*
X107562381Y-41620476D02*
X107562381Y-42191905D01*
X107562381Y-41906191D02*
X106562381Y-41906191D01*
X106705238Y-42001429D01*
X106800476Y-42096667D01*
X106848095Y-42191905D01*
X107562381Y-40668095D02*
X107562381Y-41239524D01*
X107562381Y-40953810D02*
X106562381Y-40953810D01*
X106705238Y-41049048D01*
X106800476Y-41144286D01*
X106848095Y-41239524D01*
X144297143Y-76481857D02*
X144344762Y-76529476D01*
X144392381Y-76672333D01*
X144392381Y-76767571D01*
X144344762Y-76910429D01*
X144249524Y-77005667D01*
X144154286Y-77053286D01*
X143963810Y-77100905D01*
X143820952Y-77100905D01*
X143630476Y-77053286D01*
X143535238Y-77005667D01*
X143440000Y-76910429D01*
X143392381Y-76767571D01*
X143392381Y-76672333D01*
X143440000Y-76529476D01*
X143487619Y-76481857D01*
X144392381Y-75529476D02*
X144392381Y-76100905D01*
X144392381Y-75815191D02*
X143392381Y-75815191D01*
X143535238Y-75910429D01*
X143630476Y-76005667D01*
X143678095Y-76100905D01*
X143487619Y-75148524D02*
X143440000Y-75100905D01*
X143392381Y-75005667D01*
X143392381Y-74767571D01*
X143440000Y-74672333D01*
X143487619Y-74624714D01*
X143582857Y-74577095D01*
X143678095Y-74577095D01*
X143820952Y-74624714D01*
X144392381Y-75196143D01*
X144392381Y-74577095D01*
X132070643Y-66027857D02*
X132118262Y-66075476D01*
X132165881Y-66218333D01*
X132165881Y-66313571D01*
X132118262Y-66456429D01*
X132023024Y-66551667D01*
X131927786Y-66599286D01*
X131737310Y-66646905D01*
X131594452Y-66646905D01*
X131403976Y-66599286D01*
X131308738Y-66551667D01*
X131213500Y-66456429D01*
X131165881Y-66313571D01*
X131165881Y-66218333D01*
X131213500Y-66075476D01*
X131261119Y-66027857D01*
X132165881Y-65075476D02*
X132165881Y-65646905D01*
X132165881Y-65361191D02*
X131165881Y-65361191D01*
X131308738Y-65456429D01*
X131403976Y-65551667D01*
X131451595Y-65646905D01*
X131165881Y-64742143D02*
X131165881Y-64123095D01*
X131546833Y-64456429D01*
X131546833Y-64313571D01*
X131594452Y-64218333D01*
X131642071Y-64170714D01*
X131737310Y-64123095D01*
X131975405Y-64123095D01*
X132070643Y-64170714D01*
X132118262Y-64218333D01*
X132165881Y-64313571D01*
X132165881Y-64599286D01*
X132118262Y-64694524D01*
X132070643Y-64742143D01*
X152947643Y-67127357D02*
X152995262Y-67174976D01*
X153042881Y-67317833D01*
X153042881Y-67413071D01*
X152995262Y-67555929D01*
X152900024Y-67651167D01*
X152804786Y-67698786D01*
X152614310Y-67746405D01*
X152471452Y-67746405D01*
X152280976Y-67698786D01*
X152185738Y-67651167D01*
X152090500Y-67555929D01*
X152042881Y-67413071D01*
X152042881Y-67317833D01*
X152090500Y-67174976D01*
X152138119Y-67127357D01*
X153042881Y-66174976D02*
X153042881Y-66746405D01*
X153042881Y-66460691D02*
X152042881Y-66460691D01*
X152185738Y-66555929D01*
X152280976Y-66651167D01*
X152328595Y-66746405D01*
X152376214Y-65317833D02*
X153042881Y-65317833D01*
X151995262Y-65555929D02*
X152709548Y-65794024D01*
X152709548Y-65174976D01*
X150471143Y-63507857D02*
X150518762Y-63555476D01*
X150566381Y-63698333D01*
X150566381Y-63793571D01*
X150518762Y-63936429D01*
X150423524Y-64031667D01*
X150328286Y-64079286D01*
X150137810Y-64126905D01*
X149994952Y-64126905D01*
X149804476Y-64079286D01*
X149709238Y-64031667D01*
X149614000Y-63936429D01*
X149566381Y-63793571D01*
X149566381Y-63698333D01*
X149614000Y-63555476D01*
X149661619Y-63507857D01*
X150566381Y-62555476D02*
X150566381Y-63126905D01*
X150566381Y-62841191D02*
X149566381Y-62841191D01*
X149709238Y-62936429D01*
X149804476Y-63031667D01*
X149852095Y-63126905D01*
X149566381Y-61650714D02*
X149566381Y-62126905D01*
X150042571Y-62174524D01*
X149994952Y-62126905D01*
X149947333Y-62031667D01*
X149947333Y-61793571D01*
X149994952Y-61698333D01*
X150042571Y-61650714D01*
X150137810Y-61603095D01*
X150375905Y-61603095D01*
X150471143Y-61650714D01*
X150518762Y-61698333D01*
X150566381Y-61793571D01*
X150566381Y-62031667D01*
X150518762Y-62126905D01*
X150471143Y-62174524D01*
X149755715Y-43077143D02*
X149708096Y-43124762D01*
X149565239Y-43172381D01*
X149470001Y-43172381D01*
X149327143Y-43124762D01*
X149231905Y-43029524D01*
X149184286Y-42934286D01*
X149136667Y-42743810D01*
X149136667Y-42600952D01*
X149184286Y-42410476D01*
X149231905Y-42315238D01*
X149327143Y-42220000D01*
X149470001Y-42172381D01*
X149565239Y-42172381D01*
X149708096Y-42220000D01*
X149755715Y-42267619D01*
X150374762Y-42172381D02*
X150565239Y-42172381D01*
X150660477Y-42220000D01*
X150755715Y-42315238D01*
X150803334Y-42505714D01*
X150803334Y-42839048D01*
X150755715Y-43029524D01*
X150660477Y-43124762D01*
X150565239Y-43172381D01*
X150374762Y-43172381D01*
X150279524Y-43124762D01*
X150184286Y-43029524D01*
X150136667Y-42839048D01*
X150136667Y-42505714D01*
X150184286Y-42315238D01*
X150279524Y-42220000D01*
X150374762Y-42172381D01*
X151231905Y-43172381D02*
X151231905Y-42172381D01*
X151803334Y-43172381D01*
X151803334Y-42172381D01*
X152803334Y-43172381D02*
X152231905Y-43172381D01*
X152517619Y-43172381D02*
X152517619Y-42172381D01*
X152422381Y-42315238D01*
X152327143Y-42410476D01*
X152231905Y-42458095D01*
X125888571Y-42600476D02*
X125888571Y-42267142D01*
X126412381Y-42124285D02*
X126412381Y-42600476D01*
X125412381Y-42600476D01*
X125412381Y-42124285D01*
X126412381Y-41171904D02*
X126412381Y-41743333D01*
X126412381Y-41457619D02*
X125412381Y-41457619D01*
X125555238Y-41552857D01*
X125650476Y-41648095D01*
X125698095Y-41743333D01*
X127621429Y-39510952D02*
X127621429Y-38749047D01*
X128002381Y-39129999D02*
X127240476Y-39129999D01*
X195270524Y-58515071D02*
X195603858Y-58515071D01*
X195746715Y-59038881D02*
X195270524Y-59038881D01*
X195270524Y-58038881D01*
X195746715Y-58038881D01*
X196127667Y-58134119D02*
X196175286Y-58086500D01*
X196270524Y-58038881D01*
X196508620Y-58038881D01*
X196603858Y-58086500D01*
X196651477Y-58134119D01*
X196699096Y-58229357D01*
X196699096Y-58324595D01*
X196651477Y-58467452D01*
X196080048Y-59038881D01*
X196699096Y-59038881D01*
X198360048Y-60247929D02*
X199121953Y-60247929D01*
X198741001Y-60628881D02*
X198741001Y-59866976D01*
X195397524Y-76231571D02*
X195730858Y-76231571D01*
X195873715Y-76755381D02*
X195397524Y-76755381D01*
X195397524Y-75755381D01*
X195873715Y-75755381D01*
X196207048Y-75755381D02*
X196826096Y-75755381D01*
X196492762Y-76136333D01*
X196635620Y-76136333D01*
X196730858Y-76183952D01*
X196778477Y-76231571D01*
X196826096Y-76326810D01*
X196826096Y-76564905D01*
X196778477Y-76660143D01*
X196730858Y-76707762D01*
X196635620Y-76755381D01*
X196349905Y-76755381D01*
X196254667Y-76707762D01*
X196207048Y-76660143D01*
X198487048Y-77964429D02*
X199248953Y-77964429D01*
X198868001Y-78345381D02*
X198868001Y-77583476D01*
X174569524Y-54768571D02*
X174902858Y-54768571D01*
X175045715Y-55292381D02*
X174569524Y-55292381D01*
X174569524Y-54292381D01*
X175045715Y-54292381D01*
X175950477Y-54292381D02*
X175474286Y-54292381D01*
X175426667Y-54768571D01*
X175474286Y-54720952D01*
X175569524Y-54673333D01*
X175807620Y-54673333D01*
X175902858Y-54720952D01*
X175950477Y-54768571D01*
X175998096Y-54863810D01*
X175998096Y-55101905D01*
X175950477Y-55197143D01*
X175902858Y-55244762D01*
X175807620Y-55292381D01*
X175569524Y-55292381D01*
X175474286Y-55244762D01*
X175426667Y-55197143D01*
X177659048Y-56501429D02*
X178420953Y-56501429D01*
X178040001Y-56882381D02*
X178040001Y-56120476D01*
X114458571Y-42600476D02*
X114458571Y-42267142D01*
X114982381Y-42124285D02*
X114982381Y-42600476D01*
X113982381Y-42600476D01*
X113982381Y-42124285D01*
X113982381Y-41267142D02*
X113982381Y-41457619D01*
X114030000Y-41552857D01*
X114077619Y-41600476D01*
X114220476Y-41695714D01*
X114410952Y-41743333D01*
X114791905Y-41743333D01*
X114887143Y-41695714D01*
X114934762Y-41648095D01*
X114982381Y-41552857D01*
X114982381Y-41362380D01*
X114934762Y-41267142D01*
X114887143Y-41219523D01*
X114791905Y-41171904D01*
X114553810Y-41171904D01*
X114458571Y-41219523D01*
X114410952Y-41267142D01*
X114363333Y-41362380D01*
X114363333Y-41552857D01*
X114410952Y-41648095D01*
X114458571Y-41695714D01*
X114553810Y-41743333D01*
X116191429Y-39510952D02*
X116191429Y-38749047D01*
X116572381Y-39129999D02*
X115810476Y-39129999D01*
X132492571Y-76763476D02*
X132492571Y-76430142D01*
X133016381Y-76287285D02*
X133016381Y-76763476D01*
X132016381Y-76763476D01*
X132016381Y-76287285D01*
X132016381Y-75953952D02*
X132016381Y-75287285D01*
X133016381Y-75715857D01*
X134225429Y-73673952D02*
X134225429Y-72912047D01*
X134606381Y-73292999D02*
X133844476Y-73292999D01*
X101242381Y-59118095D02*
X100242381Y-59118095D01*
X100242381Y-58737142D01*
X100290000Y-58641904D01*
X100337619Y-58594285D01*
X100432857Y-58546666D01*
X100575714Y-58546666D01*
X100670952Y-58594285D01*
X100718571Y-58641904D01*
X100766190Y-58737142D01*
X100766190Y-59118095D01*
X101242381Y-57594285D02*
X101242381Y-58165714D01*
X101242381Y-57880000D02*
X100242381Y-57880000D01*
X100385238Y-57975238D01*
X100480476Y-58070476D01*
X100528095Y-58165714D01*
X174501905Y-43172381D02*
X174501905Y-42172381D01*
X174882858Y-42172381D01*
X174978096Y-42220000D01*
X175025715Y-42267619D01*
X175073334Y-42362857D01*
X175073334Y-42505714D01*
X175025715Y-42600952D01*
X174978096Y-42648571D01*
X174882858Y-42696190D01*
X174501905Y-42696190D01*
X175454286Y-42267619D02*
X175501905Y-42220000D01*
X175597143Y-42172381D01*
X175835239Y-42172381D01*
X175930477Y-42220000D01*
X175978096Y-42267619D01*
X176025715Y-42362857D01*
X176025715Y-42458095D01*
X175978096Y-42600952D01*
X175406667Y-43172381D01*
X176025715Y-43172381D01*
X96392381Y-77636666D02*
X95916190Y-77970000D01*
X96392381Y-78208095D02*
X95392381Y-78208095D01*
X95392381Y-77827142D01*
X95440000Y-77731904D01*
X95487619Y-77684285D01*
X95582857Y-77636666D01*
X95725714Y-77636666D01*
X95820952Y-77684285D01*
X95868571Y-77731904D01*
X95916190Y-77827142D01*
X95916190Y-78208095D01*
X96392381Y-76684285D02*
X96392381Y-77255714D01*
X96392381Y-76970000D02*
X95392381Y-76970000D01*
X95535238Y-77065238D01*
X95630476Y-77160476D01*
X95678095Y-77255714D01*
X96392381Y-83986666D02*
X95916190Y-84320000D01*
X96392381Y-84558095D02*
X95392381Y-84558095D01*
X95392381Y-84177142D01*
X95440000Y-84081904D01*
X95487619Y-84034285D01*
X95582857Y-83986666D01*
X95725714Y-83986666D01*
X95820952Y-84034285D01*
X95868571Y-84081904D01*
X95916190Y-84177142D01*
X95916190Y-84558095D01*
X95487619Y-83605714D02*
X95440000Y-83558095D01*
X95392381Y-83462857D01*
X95392381Y-83224761D01*
X95440000Y-83129523D01*
X95487619Y-83081904D01*
X95582857Y-83034285D01*
X95678095Y-83034285D01*
X95820952Y-83081904D01*
X96392381Y-83653333D01*
X96392381Y-83034285D01*
X106513334Y-54372381D02*
X106180000Y-53896190D01*
X105941905Y-54372381D02*
X105941905Y-53372381D01*
X106322858Y-53372381D01*
X106418096Y-53420000D01*
X106465715Y-53467619D01*
X106513334Y-53562857D01*
X106513334Y-53705714D01*
X106465715Y-53800952D01*
X106418096Y-53848571D01*
X106322858Y-53896190D01*
X105941905Y-53896190D01*
X106846667Y-53372381D02*
X107465715Y-53372381D01*
X107132381Y-53753333D01*
X107275239Y-53753333D01*
X107370477Y-53800952D01*
X107418096Y-53848571D01*
X107465715Y-53943810D01*
X107465715Y-54181905D01*
X107418096Y-54277143D01*
X107370477Y-54324762D01*
X107275239Y-54372381D01*
X106989524Y-54372381D01*
X106894286Y-54324762D01*
X106846667Y-54277143D01*
X106513334Y-61992381D02*
X106180000Y-61516190D01*
X105941905Y-61992381D02*
X105941905Y-60992381D01*
X106322858Y-60992381D01*
X106418096Y-61040000D01*
X106465715Y-61087619D01*
X106513334Y-61182857D01*
X106513334Y-61325714D01*
X106465715Y-61420952D01*
X106418096Y-61468571D01*
X106322858Y-61516190D01*
X105941905Y-61516190D01*
X107370477Y-61325714D02*
X107370477Y-61992381D01*
X107132381Y-60944762D02*
X106894286Y-61659048D01*
X107513334Y-61659048D01*
X103973334Y-87392381D02*
X103640000Y-86916190D01*
X103401905Y-87392381D02*
X103401905Y-86392381D01*
X103782858Y-86392381D01*
X103878096Y-86440000D01*
X103925715Y-86487619D01*
X103973334Y-86582857D01*
X103973334Y-86725714D01*
X103925715Y-86820952D01*
X103878096Y-86868571D01*
X103782858Y-86916190D01*
X103401905Y-86916190D01*
X104878096Y-86392381D02*
X104401905Y-86392381D01*
X104354286Y-86868571D01*
X104401905Y-86820952D01*
X104497143Y-86773333D01*
X104735239Y-86773333D01*
X104830477Y-86820952D01*
X104878096Y-86868571D01*
X104925715Y-86963810D01*
X104925715Y-87201905D01*
X104878096Y-87297143D01*
X104830477Y-87344762D01*
X104735239Y-87392381D01*
X104497143Y-87392381D01*
X104401905Y-87344762D01*
X104354286Y-87297143D01*
X110323334Y-87392381D02*
X109990000Y-86916190D01*
X109751905Y-87392381D02*
X109751905Y-86392381D01*
X110132858Y-86392381D01*
X110228096Y-86440000D01*
X110275715Y-86487619D01*
X110323334Y-86582857D01*
X110323334Y-86725714D01*
X110275715Y-86820952D01*
X110228096Y-86868571D01*
X110132858Y-86916190D01*
X109751905Y-86916190D01*
X111180477Y-86392381D02*
X110990000Y-86392381D01*
X110894762Y-86440000D01*
X110847143Y-86487619D01*
X110751905Y-86630476D01*
X110704286Y-86820952D01*
X110704286Y-87201905D01*
X110751905Y-87297143D01*
X110799524Y-87344762D01*
X110894762Y-87392381D01*
X111085239Y-87392381D01*
X111180477Y-87344762D01*
X111228096Y-87297143D01*
X111275715Y-87201905D01*
X111275715Y-86963810D01*
X111228096Y-86868571D01*
X111180477Y-86820952D01*
X111085239Y-86773333D01*
X110894762Y-86773333D01*
X110799524Y-86820952D01*
X110751905Y-86868571D01*
X110704286Y-86963810D01*
X121753334Y-54372381D02*
X121420000Y-53896190D01*
X121181905Y-54372381D02*
X121181905Y-53372381D01*
X121562858Y-53372381D01*
X121658096Y-53420000D01*
X121705715Y-53467619D01*
X121753334Y-53562857D01*
X121753334Y-53705714D01*
X121705715Y-53800952D01*
X121658096Y-53848571D01*
X121562858Y-53896190D01*
X121181905Y-53896190D01*
X122086667Y-53372381D02*
X122753334Y-53372381D01*
X122324762Y-54372381D01*
X121880334Y-61992381D02*
X121547000Y-61516190D01*
X121308905Y-61992381D02*
X121308905Y-60992381D01*
X121689858Y-60992381D01*
X121785096Y-61040000D01*
X121832715Y-61087619D01*
X121880334Y-61182857D01*
X121880334Y-61325714D01*
X121832715Y-61420952D01*
X121785096Y-61468571D01*
X121689858Y-61516190D01*
X121308905Y-61516190D01*
X122451762Y-61420952D02*
X122356524Y-61373333D01*
X122308905Y-61325714D01*
X122261286Y-61230476D01*
X122261286Y-61182857D01*
X122308905Y-61087619D01*
X122356524Y-61040000D01*
X122451762Y-60992381D01*
X122642239Y-60992381D01*
X122737477Y-61040000D01*
X122785096Y-61087619D01*
X122832715Y-61182857D01*
X122832715Y-61230476D01*
X122785096Y-61325714D01*
X122737477Y-61373333D01*
X122642239Y-61420952D01*
X122451762Y-61420952D01*
X122356524Y-61468571D01*
X122308905Y-61516190D01*
X122261286Y-61611429D01*
X122261286Y-61801905D01*
X122308905Y-61897143D01*
X122356524Y-61944762D01*
X122451762Y-61992381D01*
X122642239Y-61992381D01*
X122737477Y-61944762D01*
X122785096Y-61897143D01*
X122832715Y-61801905D01*
X122832715Y-61611429D01*
X122785096Y-61516190D01*
X122737477Y-61468571D01*
X122642239Y-61420952D01*
X116673334Y-87392381D02*
X116340000Y-86916190D01*
X116101905Y-87392381D02*
X116101905Y-86392381D01*
X116482858Y-86392381D01*
X116578096Y-86440000D01*
X116625715Y-86487619D01*
X116673334Y-86582857D01*
X116673334Y-86725714D01*
X116625715Y-86820952D01*
X116578096Y-86868571D01*
X116482858Y-86916190D01*
X116101905Y-86916190D01*
X117149524Y-87392381D02*
X117340000Y-87392381D01*
X117435239Y-87344762D01*
X117482858Y-87297143D01*
X117578096Y-87154286D01*
X117625715Y-86963810D01*
X117625715Y-86582857D01*
X117578096Y-86487619D01*
X117530477Y-86440000D01*
X117435239Y-86392381D01*
X117244762Y-86392381D01*
X117149524Y-86440000D01*
X117101905Y-86487619D01*
X117054286Y-86582857D01*
X117054286Y-86820952D01*
X117101905Y-86916190D01*
X117149524Y-86963810D01*
X117244762Y-87011429D01*
X117435239Y-87011429D01*
X117530477Y-86963810D01*
X117578096Y-86916190D01*
X117625715Y-86820952D01*
X120412381Y-79382857D02*
X119936190Y-79716191D01*
X120412381Y-79954286D02*
X119412381Y-79954286D01*
X119412381Y-79573333D01*
X119460000Y-79478095D01*
X119507619Y-79430476D01*
X119602857Y-79382857D01*
X119745714Y-79382857D01*
X119840952Y-79430476D01*
X119888571Y-79478095D01*
X119936190Y-79573333D01*
X119936190Y-79954286D01*
X120412381Y-78430476D02*
X120412381Y-79001905D01*
X120412381Y-78716191D02*
X119412381Y-78716191D01*
X119555238Y-78811429D01*
X119650476Y-78906667D01*
X119698095Y-79001905D01*
X119412381Y-77811429D02*
X119412381Y-77716190D01*
X119460000Y-77620952D01*
X119507619Y-77573333D01*
X119602857Y-77525714D01*
X119793333Y-77478095D01*
X120031429Y-77478095D01*
X120221905Y-77525714D01*
X120317143Y-77573333D01*
X120364762Y-77620952D01*
X120412381Y-77716190D01*
X120412381Y-77811429D01*
X120364762Y-77906667D01*
X120317143Y-77954286D01*
X120221905Y-78001905D01*
X120031429Y-78049524D01*
X119793333Y-78049524D01*
X119602857Y-78001905D01*
X119507619Y-77954286D01*
X119460000Y-77906667D01*
X119412381Y-77811429D01*
X111117143Y-76072381D02*
X110783809Y-75596190D01*
X110545714Y-76072381D02*
X110545714Y-75072381D01*
X110926667Y-75072381D01*
X111021905Y-75120000D01*
X111069524Y-75167619D01*
X111117143Y-75262857D01*
X111117143Y-75405714D01*
X111069524Y-75500952D01*
X111021905Y-75548571D01*
X110926667Y-75596190D01*
X110545714Y-75596190D01*
X112069524Y-76072381D02*
X111498095Y-76072381D01*
X111783809Y-76072381D02*
X111783809Y-75072381D01*
X111688571Y-75215238D01*
X111593333Y-75310476D01*
X111498095Y-75358095D01*
X113021905Y-76072381D02*
X112450476Y-76072381D01*
X112736190Y-76072381D02*
X112736190Y-75072381D01*
X112640952Y-75215238D01*
X112545714Y-75310476D01*
X112450476Y-75358095D01*
X103497143Y-76072381D02*
X103163809Y-75596190D01*
X102925714Y-76072381D02*
X102925714Y-75072381D01*
X103306667Y-75072381D01*
X103401905Y-75120000D01*
X103449524Y-75167619D01*
X103497143Y-75262857D01*
X103497143Y-75405714D01*
X103449524Y-75500952D01*
X103401905Y-75548571D01*
X103306667Y-75596190D01*
X102925714Y-75596190D01*
X104449524Y-76072381D02*
X103878095Y-76072381D01*
X104163809Y-76072381D02*
X104163809Y-75072381D01*
X104068571Y-75215238D01*
X103973333Y-75310476D01*
X103878095Y-75358095D01*
X104830476Y-75167619D02*
X104878095Y-75120000D01*
X104973333Y-75072381D01*
X105211429Y-75072381D01*
X105306667Y-75120000D01*
X105354286Y-75167619D01*
X105401905Y-75262857D01*
X105401905Y-75358095D01*
X105354286Y-75500952D01*
X104782857Y-76072381D01*
X105401905Y-76072381D01*
X104972381Y-73032857D02*
X104496190Y-73366191D01*
X104972381Y-73604286D02*
X103972381Y-73604286D01*
X103972381Y-73223333D01*
X104020000Y-73128095D01*
X104067619Y-73080476D01*
X104162857Y-73032857D01*
X104305714Y-73032857D01*
X104400952Y-73080476D01*
X104448571Y-73128095D01*
X104496190Y-73223333D01*
X104496190Y-73604286D01*
X104972381Y-72080476D02*
X104972381Y-72651905D01*
X104972381Y-72366191D02*
X103972381Y-72366191D01*
X104115238Y-72461429D01*
X104210476Y-72556667D01*
X104258095Y-72651905D01*
X103972381Y-71747143D02*
X103972381Y-71128095D01*
X104353333Y-71461429D01*
X104353333Y-71318571D01*
X104400952Y-71223333D01*
X104448571Y-71175714D01*
X104543810Y-71128095D01*
X104781905Y-71128095D01*
X104877143Y-71175714D01*
X104924762Y-71223333D01*
X104972381Y-71318571D01*
X104972381Y-71604286D01*
X104924762Y-71699524D01*
X104877143Y-71747143D01*
X107307143Y-73358881D02*
X106973809Y-72882690D01*
X106735714Y-73358881D02*
X106735714Y-72358881D01*
X107116667Y-72358881D01*
X107211905Y-72406500D01*
X107259524Y-72454119D01*
X107307143Y-72549357D01*
X107307143Y-72692214D01*
X107259524Y-72787452D01*
X107211905Y-72835071D01*
X107116667Y-72882690D01*
X106735714Y-72882690D01*
X108259524Y-73358881D02*
X107688095Y-73358881D01*
X107973809Y-73358881D02*
X107973809Y-72358881D01*
X107878571Y-72501738D01*
X107783333Y-72596976D01*
X107688095Y-72644595D01*
X109116667Y-72692214D02*
X109116667Y-73358881D01*
X108878571Y-72311262D02*
X108640476Y-73025548D01*
X109259524Y-73025548D01*
X113657143Y-73422381D02*
X113323809Y-72946190D01*
X113085714Y-73422381D02*
X113085714Y-72422381D01*
X113466667Y-72422381D01*
X113561905Y-72470000D01*
X113609524Y-72517619D01*
X113657143Y-72612857D01*
X113657143Y-72755714D01*
X113609524Y-72850952D01*
X113561905Y-72898571D01*
X113466667Y-72946190D01*
X113085714Y-72946190D01*
X114609524Y-73422381D02*
X114038095Y-73422381D01*
X114323809Y-73422381D02*
X114323809Y-72422381D01*
X114228571Y-72565238D01*
X114133333Y-72660476D01*
X114038095Y-72708095D01*
X115514286Y-72422381D02*
X115038095Y-72422381D01*
X114990476Y-72898571D01*
X115038095Y-72850952D01*
X115133333Y-72803333D01*
X115371429Y-72803333D01*
X115466667Y-72850952D01*
X115514286Y-72898571D01*
X115561905Y-72993810D01*
X115561905Y-73231905D01*
X115514286Y-73327143D01*
X115466667Y-73374762D01*
X115371429Y-73422381D01*
X115133333Y-73422381D01*
X115038095Y-73374762D01*
X114990476Y-73327143D01*
X122952381Y-72842357D02*
X122476190Y-73175691D01*
X122952381Y-73413786D02*
X121952381Y-73413786D01*
X121952381Y-73032833D01*
X122000000Y-72937595D01*
X122047619Y-72889976D01*
X122142857Y-72842357D01*
X122285714Y-72842357D01*
X122380952Y-72889976D01*
X122428571Y-72937595D01*
X122476190Y-73032833D01*
X122476190Y-73413786D01*
X122952381Y-71889976D02*
X122952381Y-72461405D01*
X122952381Y-72175691D02*
X121952381Y-72175691D01*
X122095238Y-72270929D01*
X122190476Y-72366167D01*
X122238095Y-72461405D01*
X121952381Y-71032833D02*
X121952381Y-71223310D01*
X122000000Y-71318548D01*
X122047619Y-71366167D01*
X122190476Y-71461405D01*
X122380952Y-71509024D01*
X122761905Y-71509024D01*
X122857143Y-71461405D01*
X122904762Y-71413786D01*
X122952381Y-71318548D01*
X122952381Y-71128071D01*
X122904762Y-71032833D01*
X122857143Y-70985214D01*
X122761905Y-70937595D01*
X122523810Y-70937595D01*
X122428571Y-70985214D01*
X122380952Y-71032833D01*
X122333333Y-71128071D01*
X122333333Y-71318548D01*
X122380952Y-71413786D01*
X122428571Y-71461405D01*
X122523810Y-71509024D01*
X159782381Y-92082857D02*
X159306190Y-92416191D01*
X159782381Y-92654286D02*
X158782381Y-92654286D01*
X158782381Y-92273333D01*
X158830000Y-92178095D01*
X158877619Y-92130476D01*
X158972857Y-92082857D01*
X159115714Y-92082857D01*
X159210952Y-92130476D01*
X159258571Y-92178095D01*
X159306190Y-92273333D01*
X159306190Y-92654286D01*
X159782381Y-91130476D02*
X159782381Y-91701905D01*
X159782381Y-91416191D02*
X158782381Y-91416191D01*
X158925238Y-91511429D01*
X159020476Y-91606667D01*
X159068095Y-91701905D01*
X158782381Y-90797143D02*
X158782381Y-90130476D01*
X159782381Y-90559048D01*
X149732381Y-92082857D02*
X149256190Y-92416191D01*
X149732381Y-92654286D02*
X148732381Y-92654286D01*
X148732381Y-92273333D01*
X148780000Y-92178095D01*
X148827619Y-92130476D01*
X148922857Y-92082857D01*
X149065714Y-92082857D01*
X149160952Y-92130476D01*
X149208571Y-92178095D01*
X149256190Y-92273333D01*
X149256190Y-92654286D01*
X149732381Y-91130476D02*
X149732381Y-91701905D01*
X149732381Y-91416191D02*
X148732381Y-91416191D01*
X148875238Y-91511429D01*
X148970476Y-91606667D01*
X149018095Y-91701905D01*
X149160952Y-90559048D02*
X149113333Y-90654286D01*
X149065714Y-90701905D01*
X148970476Y-90749524D01*
X148922857Y-90749524D01*
X148827619Y-90701905D01*
X148780000Y-90654286D01*
X148732381Y-90559048D01*
X148732381Y-90368571D01*
X148780000Y-90273333D01*
X148827619Y-90225714D01*
X148922857Y-90178095D01*
X148970476Y-90178095D01*
X149065714Y-90225714D01*
X149113333Y-90273333D01*
X149160952Y-90368571D01*
X149160952Y-90559048D01*
X149208571Y-90654286D01*
X149256190Y-90701905D01*
X149351429Y-90749524D01*
X149541905Y-90749524D01*
X149637143Y-90701905D01*
X149684762Y-90654286D01*
X149732381Y-90559048D01*
X149732381Y-90368571D01*
X149684762Y-90273333D01*
X149637143Y-90225714D01*
X149541905Y-90178095D01*
X149351429Y-90178095D01*
X149256190Y-90225714D01*
X149208571Y-90273333D01*
X149160952Y-90368571D01*
X122952381Y-66301857D02*
X122476190Y-66635191D01*
X122952381Y-66873286D02*
X121952381Y-66873286D01*
X121952381Y-66492333D01*
X122000000Y-66397095D01*
X122047619Y-66349476D01*
X122142857Y-66301857D01*
X122285714Y-66301857D01*
X122380952Y-66349476D01*
X122428571Y-66397095D01*
X122476190Y-66492333D01*
X122476190Y-66873286D01*
X122952381Y-65349476D02*
X122952381Y-65920905D01*
X122952381Y-65635191D02*
X121952381Y-65635191D01*
X122095238Y-65730429D01*
X122190476Y-65825667D01*
X122238095Y-65920905D01*
X122952381Y-64873286D02*
X122952381Y-64682810D01*
X122904762Y-64587571D01*
X122857143Y-64539952D01*
X122714286Y-64444714D01*
X122523810Y-64397095D01*
X122142857Y-64397095D01*
X122047619Y-64444714D01*
X122000000Y-64492333D01*
X121952381Y-64587571D01*
X121952381Y-64778048D01*
X122000000Y-64873286D01*
X122047619Y-64920905D01*
X122142857Y-64968524D01*
X122380952Y-64968524D01*
X122476190Y-64920905D01*
X122523810Y-64873286D01*
X122571429Y-64778048D01*
X122571429Y-64587571D01*
X122523810Y-64492333D01*
X122476190Y-64444714D01*
X122380952Y-64397095D01*
D15*
X139161305Y-55840236D02*
X139161305Y-57168770D01*
X139239454Y-57325068D01*
X139317603Y-57403217D01*
X139473901Y-57481366D01*
X139786498Y-57481366D01*
X139942796Y-57403217D01*
X140020945Y-57325068D01*
X140099094Y-57168770D01*
X140099094Y-55840236D01*
X141740224Y-57481366D02*
X140802435Y-57481366D01*
X141271329Y-57481366D02*
X141271329Y-55840236D01*
X141115031Y-56074683D01*
X140958733Y-56230981D01*
X140802435Y-56309130D01*
X136376147Y-70352485D02*
X137157161Y-70352485D01*
X136219944Y-70821094D02*
X136766654Y-69180964D01*
X137313364Y-70821094D01*
X137860074Y-70821094D02*
X137860074Y-69180964D01*
X138250581Y-69180964D01*
X138484886Y-69259065D01*
X138641088Y-69415268D01*
X138719190Y-69571471D01*
X138797291Y-69883876D01*
X138797291Y-70118181D01*
X138719190Y-70430586D01*
X138641088Y-70586789D01*
X138484886Y-70742992D01*
X138250581Y-70821094D01*
X137860074Y-70821094D01*
X139500204Y-69961978D02*
X140046914Y-69961978D01*
X140281218Y-70821094D02*
X139500204Y-70821094D01*
X139500204Y-69180964D01*
X140281218Y-69180964D01*
X140827928Y-69180964D02*
X141921348Y-69180964D01*
X141218435Y-70821094D01*
X142389957Y-69180964D02*
X143483377Y-69180964D01*
X142780464Y-70821094D01*
X144889203Y-69180964D02*
X144108189Y-69180964D01*
X144030088Y-69961978D01*
X144108189Y-69883876D01*
X144264392Y-69805775D01*
X144654899Y-69805775D01*
X144811102Y-69883876D01*
X144889203Y-69961978D01*
X144967305Y-70118181D01*
X144967305Y-70508688D01*
X144889203Y-70664891D01*
X144811102Y-70742992D01*
X144654899Y-70821094D01*
X144264392Y-70821094D01*
X144108189Y-70742992D01*
X144030088Y-70664891D01*
X145514015Y-69180964D02*
X146529334Y-69180964D01*
X145982624Y-69805775D01*
X146216928Y-69805775D01*
X146373131Y-69883876D01*
X146451232Y-69961978D01*
X146529334Y-70118181D01*
X146529334Y-70508688D01*
X146451232Y-70664891D01*
X146373131Y-70742992D01*
X146216928Y-70821094D01*
X145748320Y-70821094D01*
X145592117Y-70742992D01*
X145514015Y-70664891D01*
D14*
X153153381Y-62885476D02*
X154153381Y-62218809D01*
X153153381Y-62218809D02*
X154153381Y-62885476D01*
X153153381Y-61980714D02*
X153153381Y-61409285D01*
X154153381Y-61695000D02*
X153153381Y-61695000D01*
X154153381Y-60552142D02*
X154153381Y-61123571D01*
X154153381Y-60837857D02*
X153153381Y-60837857D01*
X153296238Y-60933095D01*
X153391476Y-61028333D01*
X153439095Y-61123571D01*
X198375881Y-91611024D02*
X198375881Y-90944357D01*
X199375881Y-91611024D01*
X199375881Y-90944357D01*
X199375881Y-90039595D02*
X199375881Y-90611024D01*
X199375881Y-90325310D02*
X198375881Y-90325310D01*
X198518738Y-90420548D01*
X198613976Y-90515786D01*
X198661595Y-90611024D01*
X171973976Y-69241881D02*
X172640643Y-69241881D01*
X171973976Y-70241881D01*
X172640643Y-70241881D01*
X172973976Y-69337119D02*
X173021595Y-69289500D01*
X173116833Y-69241881D01*
X173354929Y-69241881D01*
X173450167Y-69289500D01*
X173497786Y-69337119D01*
X173545405Y-69432357D01*
X173545405Y-69527595D01*
X173497786Y-69670452D01*
X172926357Y-70241881D01*
X173545405Y-70241881D01*
X174763524Y-75589571D02*
X175096858Y-75589571D01*
X175239715Y-76113381D02*
X174763524Y-76113381D01*
X174763524Y-75113381D01*
X175239715Y-75113381D01*
X176096858Y-75446714D02*
X176096858Y-76113381D01*
X175858762Y-75065762D02*
X175620667Y-75780048D01*
X176239715Y-75780048D01*
D15*
X159893687Y-76589914D02*
X159193244Y-76589914D01*
X159193244Y-76423142D01*
X159226598Y-76323078D01*
X159293307Y-76256370D01*
X159360016Y-76223015D01*
X159493433Y-76189661D01*
X159593497Y-76189661D01*
X159726914Y-76223015D01*
X159793623Y-76256370D01*
X159860332Y-76323078D01*
X159893687Y-76423142D01*
X159893687Y-76589914D01*
X159259952Y-75922825D02*
X159226598Y-75889471D01*
X159193244Y-75822762D01*
X159193244Y-75655990D01*
X159226598Y-75589281D01*
X159259952Y-75555927D01*
X159326661Y-75522572D01*
X159393370Y-75522572D01*
X159493433Y-75555927D01*
X159893687Y-75956180D01*
X159893687Y-75522572D01*
X155697872Y-79490237D02*
X155697872Y-79890976D01*
X155697872Y-79690606D02*
X154996578Y-79690606D01*
X155096763Y-79757396D01*
X155163553Y-79824186D01*
X155196948Y-79890976D01*
X155697872Y-79189682D02*
X154996578Y-79189682D01*
X155697872Y-78788943D01*
X154996578Y-78788943D01*
X155230343Y-78154439D02*
X155697872Y-78154439D01*
X154963183Y-78321413D02*
X155464107Y-78488388D01*
X155464107Y-78054254D01*
X154996578Y-77653514D02*
X154996578Y-77586725D01*
X155029973Y-77519935D01*
X155063368Y-77486540D01*
X155130158Y-77453145D01*
X155263738Y-77419750D01*
X155430712Y-77419750D01*
X155564292Y-77453145D01*
X155631082Y-77486540D01*
X155664477Y-77519935D01*
X155697872Y-77586725D01*
X155697872Y-77653514D01*
X155664477Y-77720304D01*
X155631082Y-77753699D01*
X155564292Y-77787094D01*
X155430712Y-77820489D01*
X155263738Y-77820489D01*
X155130158Y-77787094D01*
X155063368Y-77753699D01*
X155029973Y-77720304D01*
X154996578Y-77653514D01*
X154996578Y-76985615D02*
X154996578Y-76918826D01*
X155029973Y-76852036D01*
X155063368Y-76818641D01*
X155130158Y-76785246D01*
X155263738Y-76751851D01*
X155430712Y-76751851D01*
X155564292Y-76785246D01*
X155631082Y-76818641D01*
X155664477Y-76852036D01*
X155697872Y-76918826D01*
X155697872Y-76985615D01*
X155664477Y-77052405D01*
X155631082Y-77085800D01*
X155564292Y-77119195D01*
X155430712Y-77152590D01*
X155263738Y-77152590D01*
X155130158Y-77119195D01*
X155063368Y-77085800D01*
X155029973Y-77052405D01*
X154996578Y-76985615D01*
X154996578Y-76518086D02*
X154996578Y-76050557D01*
X155697872Y-76351111D01*
X155965032Y-75048709D02*
X155931637Y-75082103D01*
X155831452Y-75148893D01*
X155764662Y-75182288D01*
X155664477Y-75215683D01*
X155497502Y-75249078D01*
X155363923Y-75249078D01*
X155196948Y-75215683D01*
X155096763Y-75182288D01*
X155029973Y-75148893D01*
X154929788Y-75082103D01*
X154896393Y-75048709D01*
X155697872Y-74781549D02*
X154996578Y-74781549D01*
X155497502Y-74547785D01*
X154996578Y-74314020D01*
X155697872Y-74314020D01*
X154996578Y-74046860D02*
X154996578Y-73579331D01*
X155697872Y-73879885D01*
X155965032Y-73378961D02*
X155931637Y-73345566D01*
X155831452Y-73278776D01*
X155764662Y-73245381D01*
X155664477Y-73211986D01*
X155497502Y-73178591D01*
X155363923Y-73178591D01*
X155196948Y-73211986D01*
X155096763Y-73245381D01*
X155029973Y-73278776D01*
X154929788Y-73345566D01*
X154896393Y-73378961D01*
X159375926Y-83310047D02*
X159375926Y-82609604D01*
X159542698Y-82609604D01*
X159642762Y-82642958D01*
X159709470Y-82709667D01*
X159742825Y-82776376D01*
X159776179Y-82909793D01*
X159776179Y-83009857D01*
X159742825Y-83143274D01*
X159709470Y-83209983D01*
X159642762Y-83276692D01*
X159542698Y-83310047D01*
X159375926Y-83310047D01*
X160443268Y-83310047D02*
X160043015Y-83310047D01*
X160243141Y-83310047D02*
X160243141Y-82609604D01*
X160176432Y-82709667D01*
X160109724Y-82776376D01*
X160043015Y-82809730D01*
X157365937Y-87506632D02*
X156965198Y-87506632D01*
X157165568Y-87506632D02*
X157165568Y-86805338D01*
X157098778Y-86905523D01*
X157031988Y-86972313D01*
X156965198Y-87005708D01*
X157666492Y-87506632D02*
X157666492Y-86805338D01*
X158067231Y-87506632D01*
X158067231Y-86805338D01*
X158701735Y-87039103D02*
X158701735Y-87506632D01*
X158534761Y-86771943D02*
X158367786Y-87272867D01*
X158801920Y-87272867D01*
X159202660Y-86805338D02*
X159269449Y-86805338D01*
X159336239Y-86838733D01*
X159369634Y-86872128D01*
X159403029Y-86938918D01*
X159436424Y-87072498D01*
X159436424Y-87239472D01*
X159403029Y-87373052D01*
X159369634Y-87439842D01*
X159336239Y-87473237D01*
X159269449Y-87506632D01*
X159202660Y-87506632D01*
X159135870Y-87473237D01*
X159102475Y-87439842D01*
X159069080Y-87373052D01*
X159035685Y-87239472D01*
X159035685Y-87072498D01*
X159069080Y-86938918D01*
X159102475Y-86872128D01*
X159135870Y-86838733D01*
X159202660Y-86805338D01*
X159870559Y-86805338D02*
X159937348Y-86805338D01*
X160004138Y-86838733D01*
X160037533Y-86872128D01*
X160070928Y-86938918D01*
X160104323Y-87072498D01*
X160104323Y-87239472D01*
X160070928Y-87373052D01*
X160037533Y-87439842D01*
X160004138Y-87473237D01*
X159937348Y-87506632D01*
X159870559Y-87506632D01*
X159803769Y-87473237D01*
X159770374Y-87439842D01*
X159736979Y-87373052D01*
X159703584Y-87239472D01*
X159703584Y-87072498D01*
X159736979Y-86938918D01*
X159770374Y-86872128D01*
X159803769Y-86838733D01*
X159870559Y-86805338D01*
X160338088Y-86805338D02*
X160805617Y-86805338D01*
X160505063Y-87506632D01*
X161807465Y-87773792D02*
X161774071Y-87740397D01*
X161707281Y-87640212D01*
X161673886Y-87573422D01*
X161640491Y-87473237D01*
X161607096Y-87306262D01*
X161607096Y-87172683D01*
X161640491Y-87005708D01*
X161673886Y-86905523D01*
X161707281Y-86838733D01*
X161774071Y-86738548D01*
X161807465Y-86705153D01*
X162074625Y-87506632D02*
X162074625Y-86805338D01*
X162308389Y-87306262D01*
X162542154Y-86805338D01*
X162542154Y-87506632D01*
X162809314Y-86805338D02*
X163276843Y-86805338D01*
X162976289Y-87506632D01*
X163477213Y-87773792D02*
X163510608Y-87740397D01*
X163577398Y-87640212D01*
X163610793Y-87573422D01*
X163644188Y-87473237D01*
X163677583Y-87306262D01*
X163677583Y-87172683D01*
X163644188Y-87005708D01*
X163610793Y-86905523D01*
X163577398Y-86838733D01*
X163510608Y-86738548D01*
X163477213Y-86705153D01*
M02*
